%
M48
M72
T01C0.02756
T02C0.03200
T03C0.03543
T04C0.04000
%
T01
X79622Y49858
X79622Y57732
X79622Y65606
X79622Y73480
X79622Y81354
X79622Y89228
X79622Y97102
X79622Y104976
X141039Y104976
X141039Y97102
X141039Y89228
X141039Y81354
X141039Y73480
X141039Y65606
X141039Y57732
X141039Y49858
T02
X179740Y97772
X189740Y97772
X205843Y120016
X205843Y135449
X165843Y135449
X165843Y120016
X133402Y151197
X122417Y170685
X112417Y170685
X102417Y170685
X93402Y151197
X53480Y143323
X53480Y159386
X35291Y192181
X25291Y192181
X13480Y159386
X13480Y143323
X14661Y53087
X54661Y53087
T03
X174583Y55370
X174583Y65370
X174583Y75370
X194583Y75370
X194583Y65370
X194583Y55370
T04
X13717Y15961
X23717Y15961
X23717Y25961
X13717Y25961
X33717Y25961
X33717Y15961
X43717Y15961
X53717Y15961
X53717Y25961
X43717Y25961
X63717Y25961
X73717Y25961
X73717Y15961
X63717Y15961
X83717Y15961
X93717Y15961
X93717Y25961
X83717Y25961
X103717Y25961
X103717Y15961
X113717Y15961
X123717Y15961
X123717Y25961
X113717Y25961
X133717Y25961
X143717Y25961
X143717Y15961
X133717Y15961
X153717Y15961
X163717Y15961
X163717Y25961
X153717Y25961
X173717Y25961
X173717Y15961
X183717Y15961
X193717Y15961
X193717Y25961
X183717Y25961
X203717Y25961
X203717Y15961
X43209Y70171
X43209Y87971
X43209Y107651
X43209Y125451
X17609Y125451
X17609Y107651
X17609Y87971
X17609Y70171
X92614Y203559
X102614Y203559
X112614Y203559
X122614Y203559
X132614Y203559
X183205Y202929
X193205Y202929
X203205Y202929
M30
