G75*
%MOIN*%
%OFA0B0*%
%FSLAX25Y25*%
%IPPOS*%
%LPD*%
%AMOC8*
5,1,8,0,0,1.08239X$1,22.5*
%
%ADD10C,0.07400*%
%ADD11R,0.06000X0.06000*%
%ADD12OC8,0.06000*%
%ADD13OC8,0.07000*%
%ADD14R,0.07000X0.07000*%
%ADD15OC8,0.06600*%
%ADD16OC8,0.05200*%
%ADD17C,0.06000*%
%ADD18R,0.05543X0.05543*%
%ADD19C,0.05543*%
%ADD20C,0.05200*%
%ADD21C,0.04756*%
%ADD22R,0.07600X0.07600*%
%ADD23C,0.07600*%
%ADD24C,0.01000*%
D10*
X0025291Y0192181D03*
X0035291Y0192181D03*
D11*
X0203717Y0025961D03*
D12*
X0013717Y0015961D03*
X0023717Y0015961D03*
X0023717Y0025961D03*
X0013717Y0025961D03*
X0033717Y0025961D03*
X0033717Y0015961D03*
X0043717Y0015961D03*
X0053717Y0015961D03*
X0053717Y0025961D03*
X0043717Y0025961D03*
X0063717Y0025961D03*
X0073717Y0025961D03*
X0073717Y0015961D03*
X0063717Y0015961D03*
X0083717Y0015961D03*
X0093717Y0015961D03*
X0093717Y0025961D03*
X0083717Y0025961D03*
X0103717Y0025961D03*
X0103717Y0015961D03*
X0113717Y0015961D03*
X0123717Y0015961D03*
X0123717Y0025961D03*
X0113717Y0025961D03*
X0133717Y0025961D03*
X0143717Y0025961D03*
X0143717Y0015961D03*
X0133717Y0015961D03*
X0153717Y0015961D03*
X0163717Y0015961D03*
X0163717Y0025961D03*
X0153717Y0025961D03*
X0173717Y0025961D03*
X0173717Y0015961D03*
X0183717Y0015961D03*
X0193717Y0015961D03*
X0193717Y0025961D03*
X0183717Y0025961D03*
X0203717Y0015961D03*
D13*
X0122614Y0203559D03*
X0112614Y0203559D03*
X0102614Y0203559D03*
X0092614Y0203559D03*
D14*
X0132614Y0203559D03*
D15*
X0179740Y0097772D03*
X0189740Y0097772D03*
D16*
X0205843Y0120016D03*
X0205843Y0135449D03*
X0165843Y0135449D03*
X0165843Y0120016D03*
X0133402Y0151197D03*
X0093402Y0151197D03*
X0053480Y0143323D03*
X0053480Y0159386D03*
X0013480Y0159386D03*
X0013480Y0143323D03*
X0014661Y0053087D03*
X0054661Y0053087D03*
D17*
X0046209Y0070171D02*
X0040209Y0070171D01*
X0040209Y0087971D02*
X0046209Y0087971D01*
X0046209Y0107651D02*
X0040209Y0107651D01*
X0040209Y0125451D02*
X0046209Y0125451D01*
X0020609Y0125451D02*
X0014609Y0125451D01*
X0014609Y0107651D02*
X0020609Y0107651D01*
X0020609Y0087971D02*
X0014609Y0087971D01*
X0014609Y0070171D02*
X0020609Y0070171D01*
D18*
X0174583Y0075370D03*
D19*
X0174583Y0065370D03*
X0174583Y0055370D03*
X0194583Y0055370D03*
X0194583Y0065370D03*
X0194583Y0075370D03*
D20*
X0122417Y0168085D02*
X0122417Y0173285D01*
X0112417Y0173285D02*
X0112417Y0168085D01*
X0102417Y0168085D02*
X0102417Y0173285D01*
D21*
X0079622Y0104976D02*
X0074866Y0104976D01*
X0074866Y0097102D02*
X0079622Y0097102D01*
X0079622Y0089228D02*
X0074866Y0089228D01*
X0074866Y0081354D02*
X0079622Y0081354D01*
X0079622Y0073480D02*
X0074866Y0073480D01*
X0074866Y0065606D02*
X0079622Y0065606D01*
X0079622Y0057732D02*
X0074866Y0057732D01*
X0074866Y0049858D02*
X0079622Y0049858D01*
X0141039Y0049858D02*
X0145795Y0049858D01*
X0145795Y0057732D02*
X0141039Y0057732D01*
X0141039Y0065606D02*
X0145795Y0065606D01*
X0145795Y0073480D02*
X0141039Y0073480D01*
X0141039Y0081354D02*
X0145795Y0081354D01*
X0145795Y0089228D02*
X0141039Y0089228D01*
X0141039Y0097102D02*
X0145795Y0097102D01*
X0145795Y0104976D02*
X0141039Y0104976D01*
D22*
X0203205Y0202929D03*
D23*
X0193205Y0202929D03*
X0183205Y0202929D03*
D24*
X0182800Y0202600D01*
X0182800Y0152200D01*
X0166600Y0136000D01*
X0165843Y0135449D01*
X0165843Y0120016D02*
X0166600Y0119800D01*
X0184600Y0101800D01*
X0184600Y0096400D01*
X0203500Y0077500D01*
X0203500Y0026200D01*
X0203717Y0025961D01*
X0194583Y0065370D02*
X0194500Y0065800D01*
X0190000Y0070300D01*
X0172000Y0070300D01*
X0169300Y0073000D01*
X0141400Y0073000D01*
X0141039Y0073480D01*
X0139600Y0069400D02*
X0147700Y0069400D01*
X0159400Y0057700D01*
X0159400Y0019900D01*
X0163000Y0016300D01*
X0163717Y0015961D01*
X0141039Y0057732D02*
X0140500Y0058600D01*
X0140500Y0060400D01*
X0135100Y0065800D01*
X0135100Y0104500D01*
X0139600Y0109000D01*
X0139600Y0153100D01*
X0122500Y0170200D01*
X0122417Y0170685D01*
X0117100Y0166600D02*
X0117100Y0199900D01*
X0113500Y0203500D01*
X0112614Y0203559D01*
X0107200Y0199000D02*
X0102700Y0203500D01*
X0102614Y0203559D01*
X0107200Y0199000D02*
X0107200Y0156700D01*
X0099100Y0148600D01*
X0099100Y0024400D01*
X0094600Y0019900D01*
X0094600Y0016300D01*
X0093717Y0015961D01*
X0093717Y0025961D02*
X0094600Y0026200D01*
X0094600Y0146800D01*
X0098200Y0150400D01*
X0098200Y0198100D01*
X0092800Y0203500D01*
X0092614Y0203559D01*
X0091000Y0208900D02*
X0127900Y0208900D01*
X0132400Y0204400D01*
X0132614Y0203559D01*
X0117100Y0166600D02*
X0114400Y0163900D01*
X0114400Y0026200D01*
X0113717Y0025961D01*
X0083800Y0055900D02*
X0083800Y0085600D01*
X0080200Y0089200D01*
X0079622Y0089228D01*
X0079300Y0090100D01*
X0076600Y0090100D01*
X0054100Y0112600D01*
X0046900Y0112600D01*
X0016300Y0143200D01*
X0013600Y0143200D01*
X0013480Y0143323D01*
X0013480Y0159386D02*
X0013600Y0159400D01*
X0041500Y0159400D01*
X0091000Y0208900D01*
X0139600Y0109000D02*
X0147700Y0109000D01*
X0173800Y0082900D01*
X0173800Y0075700D01*
X0174583Y0075370D01*
X0174700Y0075700D01*
X0194500Y0075700D01*
X0194583Y0075370D01*
X0140500Y0101800D02*
X0136900Y0098200D01*
X0136900Y0072100D01*
X0139600Y0069400D01*
X0140500Y0101800D02*
X0140500Y0104500D01*
X0141039Y0104976D01*
X0083800Y0055900D02*
X0080200Y0052300D01*
X0080200Y0050500D01*
X0079622Y0049858D01*
X0054661Y0053087D02*
X0054100Y0053200D01*
X0028900Y0028000D01*
X0028900Y0024400D01*
X0025300Y0020800D01*
X0021700Y0020800D01*
X0017200Y0016300D01*
X0014500Y0016300D01*
X0013717Y0015961D01*
X0013717Y0025961D02*
X0014500Y0026200D01*
X0014500Y0046900D01*
X0019000Y0051400D01*
X0019000Y0068500D01*
X0018100Y0069400D01*
X0017609Y0070171D01*
X0018100Y0070300D01*
X0018100Y0072100D01*
X0042400Y0096400D01*
X0042400Y0107200D01*
X0043209Y0107651D01*
M02*
